# xmcd CD database file
#
# Track frame offsets:
#	150
#	16055
#	32415
#	54275
#	70540
#	89010
#	104482
#	117492
#	132445
#	149567
#	167047
#	183000
#	199027
#	216705
#	232700
#	251710
#
# Disc length: 3622 seconds
#
# Revision: 1
# Processed by: cddbd v1.5PL3 Copyright (c) Steve Scherf et al.
# Submitted via: CDex 1.51
#
DISCID=e00e2410
DTITLE=Shania Twain - Come On Over
DYEAR=1998
DGENRE=Country
TTITLE0=You're Still The One
TTITLE1=When
TTITLE2=From This Moment On
TTITLE3=Black Eyes, Blue Tears
TTITLE4=I Won't Leave You Lonely
TTITLE5=I'm Holdin' On To Love (To Save My Life)
TTITLE6=Come On Over
TTITLE7=You've Got A Way (Notting Hill Remix)
TTITLE8=Whatever You Do! Don't!
TTITLE9=Man! I feel Like A Woman!
TTITLE10=Love Gets Me Every Time
TTITLE11=Don't Be Stupid (You Know I Love You)
TTITLE12=That Don't Impress Me Much (UK Dance Mix)
TTITLE13=Honey, I'm Home
TTITLE14=If You Wanna Touch Her, Ask!
TTITLE15=Rock This Country!
EXTD=YEAR: 1998
EXTT0=
EXTT1=
EXTT2=
EXTT3=
EXTT4=
EXTT5=
EXTT6=
EXTT7=
EXTT8=
EXTT9=
EXTT10=
EXTT11=
EXTT12=
EXTT13=
EXTT14=
EXTT15=
PLAYORDER=
